<svg id="Layer_4_copy_5" data-name="Layer 4 copy 5" xmlns="http://www.w3.org/2000/svg" viewBox="0 0 4250 4279.51"><defs><style>.cls-1,.cls-2,.cls-3,.cls-4,.cls-5,.cls-6{fill:none;stroke-miterlimit:10;}.cls-1,.cls-2,.cls-3,.cls-4,.cls-6{stroke:#000;}.cls-1{stroke-width:200px;}.cls-2{stroke-width:75px;}.cls-3{stroke-width:300px;}.cls-4{stroke-width:250px;}.cls-5{stroke:#fff;}.cls-5,.cls-6{stroke-width:100px;}</style></defs><title>runicth</title><line class="cls-1" x1="2124" y1="2139.75" x2="4125" y2="1139.75"/><line class="cls-1" x1="4125" y1="3139.75" x2="2124" y2="2139.75"/><line class="cls-2" x1="2125" y1="1139.75" x2="125" y2="2139.75"/><line class="cls-3" x1="2126" y1="139.75" x2="2125" y2="4139.75"/><polygon class="cls-4" points="4125 1139.75 2126 139.75 125 1139.75 125 3139.75 2125 4139.75 4125 3139.75 4125 1139.75"/><polygon class="cls-5" points="2327 3949.75 2327 3270.75 2907 3659.75 2327 3949.75"/><polygon class="cls-5" points="3868 3180.75 3342 2917.75 3370 3429.75 3868 3180.75"/><line class="cls-5" x1="2731" y1="3746.75" x2="3474" y2="3378.75"/><polygon class="cls-5" points="4046 1348.75 3397 1672.75 4046 2081.75 4046 1348.75"/><polygon class="cls-5" points="4044 2926.75 3429 2618.75 4044 1986.75 4044 2926.75"/><line class="cls-6" x1="125" y1="1139.75" x2="2124" y2="2139.75"/></svg>